# xmcd
#
# Track frame offsets:
#  182
#  13657
#  26095
#  39325
#  58022
#  72862
#  85822
#  98120
#  108610
#  126172
#  137130
#  152200
#  166015
#  174057
#  190665
#  209100
#  223227
#  244055
#  256165
#  268857
#  280312
#
# Disc length: 3947 seconds
#
# Revision: 3
# Processed by: cddbd v1.5.1PL0 Copyright (c) Steve Scherf et al.
# Submitted via: Collectorz.com Music Collector 6.9
#
DISCID=310f6915
DTITLE=Various Artist - The All Time Greatest Country Songs
DYEAR=1997
DGENRE=
TTITLE0=Kenny Rogers - Ruby, Don't Take Your Love To Town
TTITLE1=Nilsson - Everybody's Talkin'
TTITLE2=Charlie Rich - Behind Closed Doors
TTITLE3=Juice Newton - Angel Of The Mornign
TTITLE4=Bob Dylan - Lay Lady Lay
TTITLE5=Olivia Newton John - If Not For You
TTITLE6=Patsy Cline - Crazy
TTITLE7=Jim Reeves - He'll Have To Go
TTITLE8=Linda ronstadt - Blue Bayou
TTITLE9=Dolly Parton and Loretta Lynn and Tammy Wynette - Silver Threads And Golden Needles
TTITLE10=Billie Jo Spears - I Will Survive
TTITLE11=Reba McEntire - Cathy's Clown
TTITLE12=John D. Loudermilk - Language Of Love
TTITLE13=Emmylou Harris and Gram Parsons - Love Hurts
TTITLE14=Kris Kristofferson - Me And Bobby Mc Gee
TTITLE15=John Denver - Take Me Home, Country Roads
TTITLE16=Shawn Colvin - I Don't Know Why
TTITLE17=Glen Campbell - By The Time I Get To Phoenix
TTITLE18=Roy Orbison - Crying
TTITLE19=Cristal Cayle - Don't It Make My Brown Eyes Blue
TTITLE20=Willie Nelson - Always On My Mind
EXTD=
EXTT0=
EXTT1=
EXTT2=
EXTT3=
EXTT4=
EXTT5=
EXTT6=
EXTT7=
EXTT8=
EXTT9=
EXTT10=
EXTT11=
EXTT12=
EXTT13=
EXTT14=
EXTT15=
EXTT16=
EXTT17=
EXTT18=
EXTT19=
EXTT20=
PLAYORDER=
